<svg width="80" height="80" viewBox="0 0 80 80" fill="none" xmlns="http://www.w3.org/2000/svg">
<path d="M0 21.2245C0 13.7952 0 10.0806 1.44583 7.24298C2.71762 4.74696 4.74696 2.71762 7.24298 1.44583C10.0806 0 13.7952 0 21.2245 0H59.7551C66.8415 0 70.3847 0 73.0913 1.3791C75.4721 2.59219 77.4078 4.52787 78.6209 6.90869C80 9.61533 80 13.1585 80 20.2449V59.102C80 66.417 80 70.0745 78.5764 72.8684C77.3242 75.3261 75.3261 77.3242 72.8684 78.5764C70.0745 80 66.417 80 59.102 80H20.2449C13.1585 80 9.61533 80 6.90869 78.6209C4.52787 77.4078 2.59219 75.4721 1.3791 73.0913C0 70.3847 0 66.8415 0 59.7551V21.2245Z" fill="black"/>
<path d="M44.6288 35.4087C42.0784 32.8583 37.9434 32.8583 35.3931 35.4087C32.8427 37.959 32.8427 42.094 35.3931 44.6444C37.9434 47.1947 42.0784 47.1947 44.6288 44.6444C47.1791 42.094 47.1791 37.9591 44.6288 35.4087Z" fill="white" fill-opacity="0.5"/>
<path d="M52.4979 40C52.4979 38.3588 52.1745 36.7336 51.5464 35.2173C50.9184 33.701 49.9978 32.3232 48.8373 31.1627C47.6768 30.0022 46.299 29.0817 44.7827 28.4536C43.2664 27.8255 41.6412 27.5021 40 27.5021C36.6854 27.5021 33.5065 28.8189 31.1627 31.1627C28.8189 33.5065 27.5021 36.6854 27.5021 40L27.5021 52.4979L40 52.4979C41.6412 52.4979 43.2664 52.1745 44.7827 51.5464C46.299 50.9184 47.6768 49.9979 48.8373 48.8373C49.9979 47.6768 50.9184 46.299 51.5464 44.7827C52.1745 43.2664 52.4979 41.6412 52.4979 40ZM60.7408 40C60.7408 42.7237 60.2041 45.4206 59.1618 47.937C58.1195 50.4534 56.5916 52.7397 54.6657 54.6657C52.7397 56.5916 50.4534 58.1195 47.937 59.1618C45.4206 60.2041 42.7237 60.7408 40 60.7408L24.826 60.7408C23.3497 60.7408 21.9337 60.1542 20.8897 59.1103C19.8458 58.0664 19.2593 56.6504 19.2593 55.174L19.2593 40C19.2593 34.4992 21.4443 29.2236 25.3339 25.3339C29.2236 21.4443 34.4992 19.2593 40 19.2593C42.7237 19.2593 45.4206 19.7959 47.937 20.8382C50.4533 21.8805 52.7398 23.4081 54.6657 25.334C56.5916 27.2599 58.1195 29.5463 59.1618 32.0627C60.2041 34.579 60.7408 37.2763 60.7408 40Z" fill="white"/>
<path d="M27.5021 40C27.5021 41.6412 27.8255 43.2664 28.4536 44.7827C29.0816 46.299 30.0022 47.6768 31.1627 48.8373C32.3232 49.9978 33.701 50.9183 35.2173 51.5464C36.7336 52.1745 38.3588 52.4979 40 52.4979C43.3146 52.4979 46.4935 51.1811 48.8373 48.8373C51.1811 46.4935 52.4979 43.3146 52.4979 40L52.4979 27.5021L40 27.5021C38.3588 27.5021 36.7336 27.8255 35.2173 28.4536C33.701 29.0816 32.3232 30.0021 31.1627 31.1627C30.0021 32.3232 29.0816 33.701 28.4536 35.2173C27.8255 36.7336 27.5021 38.3588 27.5021 40ZM19.2592 40C19.2593 37.2763 19.7959 34.5794 20.8382 32.063C21.8805 29.5466 23.4084 27.2603 25.3343 25.3343C27.2603 23.4084 29.5466 21.8805 32.063 20.8382C34.5794 19.7959 37.2763 19.2592 40 19.2592L55.174 19.2592C56.6503 19.2592 58.0663 19.8458 59.1103 20.8897C60.1542 21.9336 60.7407 23.3496 60.7407 24.826L60.7407 40C60.7407 45.5008 58.5557 50.7764 54.6661 54.6661C50.7764 58.5557 45.5008 60.7407 40 60.7407C37.2763 60.7407 34.5794 60.2041 32.063 59.1618C29.5467 58.1195 27.2602 56.5919 25.3343 54.6661C23.4084 52.7401 21.8805 50.4537 20.8382 47.9373C19.7959 45.421 19.2592 42.7237 19.2592 40Z" fill="white"/>
</svg>
