<svg width="343" height="80" viewBox="0 0 343 80" fill="none" xmlns="http://www.w3.org/2000/svg">
<path d="M0 21.2245C0 13.7952 0 10.0806 1.44583 7.24298C2.71762 4.74696 4.74696 2.71762 7.24298 1.44583C10.0806 0 13.7952 0 21.2245 0H59.7551C66.8415 0 70.3847 0 73.0913 1.3791C75.4721 2.59219 77.4078 4.52787 78.6209 6.90869C80 9.61533 80 13.1585 80 20.2449V59.102C80 66.417 80 70.0745 78.5764 72.8684C77.3242 75.3261 75.3261 77.3242 72.8684 78.5764C70.0745 80 66.417 80 59.102 80H20.2449C13.1585 80 9.61533 80 6.90869 78.6209C4.52787 77.4078 2.59219 75.4721 1.3791 73.0913C0 70.3847 0 66.8415 0 59.7551V21.2245Z" fill="white"/>
<path d="M44.6288 35.4087C42.0784 32.8583 37.9434 32.8583 35.3931 35.4087C32.8427 37.959 32.8427 42.094 35.3931 44.6444C37.9434 47.1947 42.0784 47.1947 44.6288 44.6444C47.1791 42.094 47.1791 37.9591 44.6288 35.4087Z" fill="black" fill-opacity="0.5"/>
<path d="M52.4979 40C52.4979 38.3588 52.1745 36.7336 51.5464 35.2173C50.9184 33.701 49.9978 32.3232 48.8373 31.1627C47.6768 30.0022 46.299 29.0817 44.7827 28.4536C43.2664 27.8255 41.6412 27.5021 40 27.5021C36.6854 27.5021 33.5065 28.8189 31.1627 31.1627C28.8189 33.5065 27.5021 36.6854 27.5021 40L27.5021 52.4979L40 52.4979C41.6412 52.4979 43.2664 52.1745 44.7827 51.5464C46.299 50.9184 47.6768 49.9979 48.8373 48.8373C49.9979 47.6768 50.9184 46.299 51.5464 44.7827C52.1745 43.2664 52.4979 41.6412 52.4979 40ZM60.7408 40C60.7408 42.7237 60.2041 45.4206 59.1618 47.937C58.1195 50.4534 56.5916 52.7397 54.6657 54.6657C52.7397 56.5916 50.4534 58.1195 47.937 59.1618C45.4206 60.2041 42.7237 60.7408 40 60.7408L24.826 60.7408C23.3497 60.7408 21.9337 60.1542 20.8897 59.1103C19.8458 58.0664 19.2593 56.6504 19.2593 55.174L19.2593 40C19.2593 34.4992 21.4443 29.2236 25.3339 25.3339C29.2236 21.4443 34.4992 19.2593 40 19.2593C42.7237 19.2593 45.4206 19.7959 47.937 20.8382C50.4533 21.8805 52.7398 23.4081 54.6657 25.334C56.5916 27.2599 58.1195 29.5463 59.1618 32.0627C60.2041 34.579 60.7408 37.2763 60.7408 40Z" fill="black"/>
<path d="M27.5021 40C27.5021 41.6412 27.8255 43.2664 28.4536 44.7827C29.0816 46.299 30.0022 47.6768 31.1627 48.8373C32.3232 49.9978 33.701 50.9183 35.2173 51.5464C36.7336 52.1745 38.3588 52.4979 40 52.4979C43.3146 52.4979 46.4935 51.1811 48.8373 48.8373C51.1811 46.4935 52.4979 43.3146 52.4979 40L52.4979 27.5021L40 27.5021C38.3588 27.5021 36.7336 27.8255 35.2173 28.4536C33.701 29.0816 32.3232 30.0021 31.1627 31.1627C30.0021 32.3232 29.0816 33.701 28.4536 35.2173C27.8255 36.7336 27.5021 38.3588 27.5021 40ZM19.2592 40C19.2593 37.2763 19.7959 34.5794 20.8382 32.063C21.8805 29.5466 23.4084 27.2603 25.3343 25.3343C27.2603 23.4084 29.5466 21.8805 32.063 20.8382C34.5794 19.7959 37.2763 19.2592 40 19.2592L55.174 19.2592C56.6503 19.2592 58.0663 19.8458 59.1103 20.8897C60.1542 21.9336 60.7407 23.3496 60.7407 24.826L60.7407 40C60.7407 45.5008 58.5557 50.7764 54.6661 54.6661C50.7764 58.5557 45.5008 60.7407 40 60.7407C37.2763 60.7407 34.5794 60.2041 32.063 59.1618C29.5467 58.1195 27.2602 56.5919 25.3343 54.6661C23.4084 52.7401 21.8805 50.4537 20.8382 47.9373C19.7959 45.421 19.2592 42.7237 19.2592 40Z" fill="black"/>
<path d="M114.2 54V43.28L102.76 26H109.44L117.28 38.16L125.16 26H131.48L120 43.32V54H114.2ZM138.094 54.4C136.014 54.4 134.121 53.92 132.414 52.96C130.734 52 129.401 50.7067 128.414 49.08C127.428 47.4533 126.934 45.6267 126.934 43.6C126.934 41.5733 127.401 39.7467 128.334 38.12C129.294 36.4933 130.588 35.2 132.214 34.24C133.841 33.28 135.654 32.8 137.654 32.8C139.654 32.8 141.428 33.2933 142.974 34.28C144.521 35.2667 145.734 36.6 146.614 38.28C147.521 39.96 147.974 41.8667 147.974 44V45.44H132.534C132.774 46.2667 133.161 47.0133 133.694 47.68C134.254 48.3467 134.934 48.8667 135.734 49.24C136.561 49.6133 137.441 49.8 138.374 49.8C139.308 49.8 140.161 49.6533 140.934 49.36C141.734 49.0667 142.414 48.6533 142.974 48.12L146.574 51.4C145.294 52.44 143.974 53.2 142.614 53.68C141.281 54.16 139.774 54.4 138.094 54.4ZM132.454 41.52H142.574C142.388 40.6933 142.041 39.9733 141.534 39.36C141.054 38.72 140.468 38.2267 139.774 37.88C139.108 37.5067 138.361 37.32 137.534 37.32C136.681 37.32 135.908 37.4933 135.214 37.84C134.521 38.1867 133.934 38.68 133.454 39.32C133.001 39.9333 132.668 40.6667 132.454 41.52ZM151.332 54V26L156.812 25.08V54H151.332ZM169.144 54V26L174.624 25.08V54H169.144ZM185.55 54.36C184.057 54.36 182.737 54.0933 181.59 53.56C180.443 53 179.55 52.24 178.91 51.28C178.27 50.32 177.95 49.2133 177.95 47.96C177.95 45.96 178.697 44.4133 180.19 43.32C181.71 42.2 183.79 41.64 186.43 41.64C188.243 41.64 189.95 41.92 191.55 42.48V40.96C191.55 39.76 191.177 38.8533 190.43 38.24C189.683 37.6267 188.59 37.32 187.15 37.32C186.27 37.32 185.323 37.4667 184.31 37.76C183.297 38.0267 182.123 38.4533 180.79 39.04L178.79 35C180.443 34.2533 182.017 33.6933 183.51 33.32C185.03 32.9467 186.55 32.76 188.07 32.76C190.87 32.76 193.043 33.44 194.59 34.8C196.163 36.1333 196.95 38.0267 196.95 40.48V54H191.55V52.52C190.697 53.16 189.777 53.6267 188.79 53.92C187.803 54.2133 186.723 54.36 185.55 54.36ZM183.15 47.84C183.15 48.64 183.497 49.28 184.19 49.76C184.883 50.2133 185.803 50.44 186.95 50.44C187.857 50.44 188.697 50.3333 189.47 50.12C190.243 49.88 190.937 49.5333 191.55 49.08V46.04C190.883 45.7733 190.19 45.5733 189.47 45.44C188.75 45.3067 187.977 45.24 187.15 45.24C185.897 45.24 184.91 45.48 184.19 45.96C183.497 46.4133 183.15 47.04 183.15 47.84ZM201.098 54V33.16H206.578V34.88C208.151 33.4667 210.098 32.76 212.418 32.76C214.044 32.76 215.471 33.12 216.698 33.84C217.951 34.5333 218.924 35.5067 219.618 36.76C220.311 37.9867 220.658 39.4267 220.658 41.08V54H215.178V41.88C215.178 40.52 214.791 39.4533 214.018 38.68C213.244 37.88 212.191 37.48 210.858 37.48C209.924 37.48 209.098 37.6667 208.378 38.04C207.658 38.3867 207.058 38.8933 206.578 39.56V54H201.098ZM235.288 62.56C233.688 62.56 232.142 62.3867 230.648 62.04C229.155 61.72 227.808 61.2533 226.608 60.64L228.528 56.4C229.675 56.96 230.795 57.3733 231.888 57.64C232.982 57.9067 234.075 58.04 235.168 58.04C236.795 58.04 238.022 57.6933 238.848 57C239.702 56.3067 240.128 55.2667 240.128 53.88V52.24C238.422 53.4933 236.515 54.12 234.408 54.12C232.435 54.12 230.648 53.6533 229.048 52.72C227.475 51.76 226.208 50.4667 225.248 48.84C224.315 47.2133 223.848 45.4133 223.848 43.44C223.848 41.4667 224.315 39.68 225.248 38.08C226.208 36.48 227.502 35.2133 229.128 34.28C230.755 33.32 232.568 32.84 234.568 32.84C235.582 32.84 236.568 32.9867 237.528 33.28C238.488 33.5733 239.382 33.9867 240.208 34.52V33.16H245.608V53.96C245.608 56.7067 244.715 58.8267 242.928 60.32C241.168 61.8133 238.622 62.56 235.288 62.56ZM235.248 49.48C236.262 49.48 237.182 49.32 238.008 49C238.835 48.6533 239.542 48.1733 240.128 47.56V39.4C239.542 38.8133 238.822 38.36 237.968 38.04C237.142 37.6933 236.248 37.52 235.288 37.52C234.142 37.52 233.115 37.7867 232.208 38.32C231.302 38.8267 230.582 39.5333 230.048 40.44C229.515 41.32 229.248 42.32 229.248 43.44C229.248 44.5867 229.502 45.6133 230.008 46.52C230.542 47.4267 231.262 48.1467 232.168 48.68C233.102 49.2133 234.128 49.48 235.248 49.48ZM257.967 54.4C256.367 54.4 254.94 54.0533 253.687 53.36C252.46 52.64 251.487 51.6533 250.767 50.4C250.073 49.1467 249.727 47.7067 249.727 46.08V33.16H255.207V45.28C255.207 46.6133 255.593 47.68 256.367 48.48C257.167 49.28 258.233 49.68 259.567 49.68C260.473 49.68 261.287 49.5067 262.007 49.16C262.753 48.7867 263.367 48.2667 263.847 47.6V33.16H269.327V54H263.847V52.32C262.247 53.7067 260.287 54.4 257.967 54.4ZM280.238 54.36C278.744 54.36 277.424 54.0933 276.278 53.56C275.131 53 274.238 52.24 273.598 51.28C272.958 50.32 272.638 49.2133 272.638 47.96C272.638 45.96 273.384 44.4133 274.878 43.32C276.398 42.2 278.478 41.64 281.118 41.64C282.931 41.64 284.638 41.92 286.238 42.48V40.96C286.238 39.76 285.864 38.8533 285.118 38.24C284.371 37.6267 283.278 37.32 281.838 37.32C280.958 37.32 280.011 37.4667 278.998 37.76C277.984 38.0267 276.811 38.4533 275.478 39.04L273.478 35C275.131 34.2533 276.704 33.6933 278.198 33.32C279.718 32.9467 281.238 32.76 282.758 32.76C285.558 32.76 287.731 33.44 289.278 34.8C290.851 36.1333 291.637 38.0267 291.637 40.48V54H286.238V52.52C285.384 53.16 284.464 53.6267 283.478 53.92C282.491 54.2133 281.411 54.36 280.238 54.36ZM277.838 47.84C277.838 48.64 278.184 49.28 278.878 49.76C279.571 50.2133 280.491 50.44 281.638 50.44C282.544 50.44 283.384 50.3333 284.158 50.12C284.931 49.88 285.624 49.5333 286.238 49.08V46.04C285.571 45.7733 284.878 45.5733 284.158 45.44C283.438 45.3067 282.664 45.24 281.838 45.24C280.584 45.24 279.598 45.48 278.878 45.96C278.184 46.4133 277.838 47.04 277.838 47.84ZM306.265 62.56C304.665 62.56 303.118 62.3867 301.625 62.04C300.132 61.72 298.785 61.2533 297.585 60.64L299.505 56.4C300.652 56.96 301.772 57.3733 302.865 57.64C303.958 57.9067 305.052 58.04 306.145 58.04C307.772 58.04 308.998 57.6933 309.825 57C310.678 56.3067 311.105 55.2667 311.105 53.88V52.24C309.398 53.4933 307.492 54.12 305.385 54.12C303.412 54.12 301.625 53.6533 300.025 52.72C298.452 51.76 297.185 50.4667 296.225 48.84C295.292 47.2133 294.825 45.4133 294.825 43.44C294.825 41.4667 295.292 39.68 296.225 38.08C297.185 36.48 298.478 35.2133 300.105 34.28C301.732 33.32 303.545 32.84 305.545 32.84C306.558 32.84 307.545 32.9867 308.505 33.28C309.465 33.5733 310.358 33.9867 311.185 34.52V33.16H316.585V53.96C316.585 56.7067 315.692 58.8267 313.905 60.32C312.145 61.8133 309.598 62.56 306.265 62.56ZM306.225 49.48C307.238 49.48 308.158 49.32 308.985 49C309.812 48.6533 310.518 48.1733 311.105 47.56V39.4C310.518 38.8133 309.798 38.36 308.945 38.04C308.118 37.6933 307.225 37.52 306.265 37.52C305.118 37.52 304.092 37.7867 303.185 38.32C302.278 38.8267 301.558 39.5333 301.025 40.44C300.492 41.32 300.225 42.32 300.225 43.44C300.225 44.5867 300.478 45.6133 300.985 46.52C301.518 47.4267 302.238 48.1467 303.145 48.68C304.078 49.2133 305.105 49.48 306.225 49.48ZM331.063 54.4C328.983 54.4 327.09 53.92 325.383 52.96C323.703 52 322.37 50.7067 321.383 49.08C320.396 47.4533 319.903 45.6267 319.903 43.6C319.903 41.5733 320.37 39.7467 321.303 38.12C322.263 36.4933 323.556 35.2 325.183 34.24C326.81 33.28 328.623 32.8 330.623 32.8C332.623 32.8 334.396 33.2933 335.943 34.28C337.49 35.2667 338.703 36.6 339.583 38.28C340.49 39.96 340.943 41.8667 340.943 44V45.44H325.503C325.743 46.2667 326.13 47.0133 326.663 47.68C327.223 48.3467 327.903 48.8667 328.703 49.24C329.53 49.6133 330.41 49.8 331.343 49.8C332.276 49.8 333.13 49.6533 333.903 49.36C334.703 49.0667 335.383 48.6533 335.943 48.12L339.543 51.4C338.263 52.44 336.943 53.2 335.583 53.68C334.25 54.16 332.743 54.4 331.063 54.4ZM325.423 41.52H335.543C335.356 40.6933 335.01 39.9733 334.503 39.36C334.023 38.72 333.436 38.2267 332.743 37.88C332.076 37.5067 331.33 37.32 330.503 37.32C329.65 37.32 328.876 37.4933 328.183 37.84C327.49 38.1867 326.903 38.68 326.423 39.32C325.97 39.9333 325.636 40.6667 325.423 41.52Z" fill="white"/>
</svg>
