<svg width="196" height="196" viewBox="0 0 196 196" fill="none" xmlns="http://www.w3.org/2000/svg">
<path d="M0 52C0 33.7983 0 24.6974 3.54229 17.7453C6.65817 11.63 11.63 6.65817 17.7453 3.54229C24.6974 0 33.7983 0 52 0H146.4C163.762 0 172.442 0 179.074 3.3788C184.907 6.35087 189.649 11.0933 192.621 16.9263C196 23.5576 196 32.2384 196 49.6V144.8C196 162.722 196 171.683 192.512 178.528C189.444 184.549 184.549 189.444 178.528 192.512C171.683 196 162.722 196 144.8 196H49.6C32.2384 196 23.5576 196 16.9263 192.621C11.0933 189.649 6.35087 184.907 3.3788 179.074C0 172.442 0 163.762 0 146.4V52Z" fill="#8EC5FF"/>
<path d="M109.341 86.7513C103.092 80.5029 92.9615 80.5029 86.7132 86.7513C80.4648 92.9996 80.4648 103.13 86.7131 109.379C92.9615 115.627 103.092 115.627 109.341 109.379C115.589 103.13 115.589 92.9996 109.341 86.7513Z" fill="black" fill-opacity="0.5"/>
<path d="M98.0267 138.351L61.2091 138.351C60.2791 138.351 59.3872 137.981 58.7297 137.324C58.0721 136.666 57.7026 135.774 57.7026 134.844L57.7026 98.0267C57.7027 87.3321 61.9511 77.0755 69.5133 69.5133C77.0755 61.9511 87.3321 57.7026 98.0267 57.7026C103.322 57.7026 108.566 58.7457 113.458 60.7721C118.35 62.7986 122.796 65.7689 126.54 69.5133C130.285 73.2577 133.255 77.703 135.281 82.5954C137.308 87.4877 138.351 92.7313 138.351 98.0267C138.351 103.322 137.308 108.566 135.281 113.458C133.255 118.35 130.285 122.796 126.54 126.54C122.796 130.285 118.35 133.255 113.458 135.281C108.566 137.308 103.322 138.351 98.0267 138.351Z" stroke="black" stroke-width="20" stroke-linecap="round" stroke-linejoin="round"/>
<path d="M98.027 57.7029L134.845 57.7029C135.775 57.7029 136.666 58.0723 137.324 58.7299C137.982 59.3875 138.351 60.2794 138.351 61.2094L138.351 98.027C138.351 108.722 134.103 118.978 126.54 126.54C118.978 134.103 108.722 138.351 98.027 138.351C92.7316 138.351 87.488 137.308 82.5956 135.282C77.7033 133.255 73.258 130.285 69.5136 126.54C65.7691 122.796 62.7989 118.351 60.7724 113.458C58.7459 108.566 57.7029 103.322 57.7029 98.027C57.7029 92.7316 58.7459 87.488 60.7724 82.5956C62.7989 77.7033 65.7691 73.258 69.5136 69.5136C73.258 65.7691 77.7033 62.7989 82.5956 60.7724C87.488 58.7459 92.7315 57.7029 98.027 57.7029Z" stroke="black" stroke-width="20" stroke-linecap="round" stroke-linejoin="round"/>
</svg>
